G04 EAGLE Gerber RS-274X export*
G75*
%MOMM*%
%FSLAX34Y34*%
%LPD*%
%INTop Copper*%
%IPPOS*%
%AMOC8*
5,1,8,0,0,1.08239X$1,22.5*%
G01*
%ADD10R,0.939800X0.660400*%
%ADD11R,0.939800X0.762000*%
%ADD12C,1.524000*%
%ADD13R,0.800000X0.900000*%
%ADD14R,1.000000X1.400000*%
%ADD15C,0.152400*%
%ADD16C,0.756400*%


D10*
X129540Y64008D03*
X129540Y78232D03*
D11*
X66040Y66802D03*
X66040Y50038D03*
X15240Y50038D03*
X15240Y66802D03*
X78740Y104902D03*
X78740Y88138D03*
D12*
X172720Y20320D02*
X187960Y20320D01*
X187960Y45720D02*
X172720Y45720D01*
X172720Y71120D02*
X187960Y71120D01*
X187960Y96520D02*
X172720Y96520D01*
X172720Y121920D02*
X187960Y121920D01*
D13*
X120040Y23020D03*
X139040Y23020D03*
X129540Y44020D03*
X120040Y99220D03*
X139040Y99220D03*
X129540Y120220D03*
X18440Y23020D03*
X37440Y23020D03*
X27940Y44020D03*
D14*
X27940Y120220D03*
X37440Y98220D03*
X18440Y98220D03*
D15*
X120396Y100584D02*
X120396Y109728D01*
X129540Y118872D01*
X120396Y100584D02*
X120040Y99220D01*
X129540Y118872D02*
X129540Y120220D01*
X118872Y22860D02*
X96012Y22860D01*
X92964Y19812D01*
X118872Y22860D02*
X120040Y23020D01*
X109728Y89916D02*
X118872Y99060D01*
X120040Y99220D01*
D16*
X92964Y19812D03*
X109728Y89916D03*
D15*
X138684Y88392D02*
X138684Y99060D01*
X138684Y88392D02*
X129540Y79248D01*
X138684Y99060D02*
X139040Y99220D01*
X129540Y79248D02*
X129540Y78232D01*
X140208Y22860D02*
X178308Y22860D01*
X179832Y21336D01*
X140208Y22860D02*
X139040Y23020D01*
X179832Y21336D02*
X180340Y20320D01*
X161544Y88392D02*
X138684Y88392D01*
X161544Y88392D02*
X167640Y82296D01*
X192024Y82296D01*
X198120Y76200D01*
X198120Y38100D01*
X180340Y20320D01*
X24384Y22860D02*
X19812Y22860D01*
X24384Y22860D02*
X32004Y15240D01*
X79248Y15240D01*
X106680Y42672D01*
X129540Y42672D01*
X19812Y22860D02*
X18440Y23020D01*
X129540Y42672D02*
X129540Y44020D01*
X129540Y45720D01*
X129540Y64008D01*
X129540Y45720D02*
X180340Y45720D01*
X129540Y44196D02*
X129540Y44020D01*
X32004Y118872D02*
X28956Y118872D01*
X32004Y118872D02*
X39624Y111252D01*
X28956Y118872D02*
X27940Y120220D01*
D16*
X39624Y111252D03*
D15*
X47244Y88392D02*
X77724Y88392D01*
X47244Y88392D02*
X38100Y97536D01*
X77724Y88392D02*
X78740Y88138D01*
X38100Y97536D02*
X37440Y98220D01*
X28956Y42672D02*
X60960Y42672D01*
X79248Y24384D01*
X28956Y42672D02*
X27940Y44020D01*
D16*
X79248Y24384D03*
D15*
X50292Y36576D02*
X38100Y24384D01*
X37440Y23020D01*
D16*
X50292Y36576D03*
D15*
X67056Y67056D02*
X120396Y67056D01*
X123444Y70104D01*
X179832Y70104D01*
X67056Y67056D02*
X66040Y66802D01*
X179832Y70104D02*
X180340Y71120D01*
X65532Y54864D02*
X65532Y50292D01*
X65532Y54864D02*
X57912Y62484D01*
X57912Y71628D01*
X67056Y80772D01*
X83820Y80772D01*
X86868Y83820D01*
X86868Y96012D01*
X79248Y103632D01*
X65532Y50292D02*
X66040Y50038D01*
X79248Y103632D02*
X78740Y104902D01*
X76200Y44196D02*
X71628Y44196D01*
X67056Y48768D01*
X66040Y50038D01*
X181356Y117348D02*
X181356Y121920D01*
X181356Y117348D02*
X198120Y100584D01*
X198120Y91440D01*
X192024Y85344D01*
X169164Y85344D01*
X147828Y106680D01*
X134112Y106680D01*
X126492Y99060D01*
X126492Y92964D01*
X117348Y83820D01*
X86868Y83820D01*
X180340Y121920D02*
X181356Y121920D01*
D16*
X76200Y44196D03*
D15*
X15240Y66802D02*
X15240Y94488D01*
X18288Y97536D01*
X18440Y98220D01*
X15240Y54864D02*
X15240Y50038D01*
X15240Y54864D02*
X7620Y62484D01*
X7620Y115824D01*
X21336Y129540D01*
X147828Y129540D01*
X179832Y97536D01*
X180340Y96520D01*
M02*
