G04 EAGLE Gerber RS-274X export*
G75*
%MOMM*%
%FSLAX34Y34*%
%LPD*%
%INBottom Copper*%
%IPPOS*%
%AMOC8*
5,1,8,0,0,1.08239X$1,22.5*%
G01*
%ADD10R,1.400000X1.400000*%
%ADD11R,0.762000X0.939800*%
%ADD12C,1.524000*%
%ADD13R,1.000000X1.400000*%
%ADD14R,0.800000X0.900000*%
%ADD15C,0.152400*%
%ADD16C,0.756400*%


D10*
X40640Y52120D03*
X40640Y90120D03*
D11*
X70358Y33020D03*
X87122Y33020D03*
X99822Y58420D03*
X83058Y58420D03*
D12*
X172720Y20320D02*
X187960Y20320D01*
X187960Y45720D02*
X172720Y45720D01*
X172720Y71120D02*
X187960Y71120D01*
X187960Y96520D02*
X172720Y96520D01*
X172720Y121920D02*
X187960Y121920D01*
D13*
X139040Y98220D03*
X120040Y98220D03*
X129540Y120220D03*
D14*
X139040Y23020D03*
X120040Y23020D03*
X129540Y44020D03*
D15*
X92964Y19812D02*
X83820Y19812D01*
X82296Y18288D01*
X56388Y18288D01*
X30480Y44196D01*
X30480Y59436D01*
X59436Y88392D01*
X109728Y88392D01*
X111252Y89916D02*
X118872Y97536D01*
X111252Y89916D02*
X109728Y88392D01*
X118872Y97536D02*
X120040Y98220D01*
X111252Y89916D02*
X109728Y89916D01*
D16*
X92964Y19812D03*
X109728Y89916D03*
D15*
X100584Y57912D02*
X118872Y39624D01*
X118872Y38100D01*
X126492Y30480D01*
X170688Y30480D01*
X179832Y21336D01*
X100584Y57912D02*
X99822Y58420D01*
X179832Y21336D02*
X180340Y20320D01*
X65532Y53340D02*
X41148Y53340D01*
X65532Y53340D02*
X77724Y65532D01*
X105156Y65532D01*
X121920Y48768D01*
X121920Y39624D01*
X124968Y36576D01*
X170688Y36576D01*
X179832Y45720D01*
X41148Y53340D02*
X40640Y52120D01*
X179832Y45720D02*
X180340Y45720D01*
X97536Y91440D02*
X41148Y91440D01*
X97536Y91440D02*
X124968Y118872D01*
X129540Y118872D01*
X41148Y91440D02*
X40640Y90120D01*
X129540Y118872D02*
X129540Y120220D01*
X39624Y111252D02*
X39624Y91440D01*
X40640Y90120D01*
D16*
X39624Y111252D03*
D15*
X86868Y32004D02*
X79248Y24384D01*
X86868Y32004D02*
X87122Y33020D01*
X132588Y22860D02*
X138684Y22860D01*
X132588Y22860D02*
X124968Y15240D01*
X106680Y15240D01*
X88392Y33528D01*
X138684Y22860D02*
X139040Y23020D01*
X88392Y33528D02*
X87122Y33020D01*
D16*
X79248Y24384D03*
D15*
X59436Y36576D02*
X50292Y36576D01*
X59436Y36576D02*
X82296Y59436D01*
X83058Y58420D01*
X83820Y59436D02*
X118872Y24384D01*
X120040Y23020D01*
X83058Y58420D02*
X83820Y59436D01*
D16*
X50292Y36576D03*
D15*
X129540Y70104D02*
X129540Y88392D01*
X129540Y70104D02*
X129540Y44020D01*
X129540Y88392D02*
X138684Y97536D01*
X139040Y98220D01*
X129540Y70104D02*
X179832Y70104D01*
X180340Y71120D01*
X71628Y39624D02*
X71628Y33528D01*
X71628Y39624D02*
X76200Y44196D01*
X71628Y33528D02*
X70358Y33020D01*
D16*
X76200Y44196D03*
M02*
