G04 EAGLE Gerber RS-274X export*
G75*
%MOMM*%
%FSLAX34Y34*%
%LPD*%
%INSilkscreen Bottom*%
%IPPOS*%
%AMOC8*
5,1,8,0,0,1.08239X$1,22.5*%
G01*
%ADD10C,0.050800*%
%ADD11C,0.152400*%
%ADD12C,0.203200*%
%ADD13C,0.127000*%


D10*
X46306Y71214D02*
X46306Y76802D01*
X44754Y76802D01*
X44678Y76800D01*
X44602Y76795D01*
X44526Y76785D01*
X44451Y76772D01*
X44377Y76755D01*
X44303Y76735D01*
X44231Y76711D01*
X44160Y76684D01*
X44090Y76653D01*
X44022Y76619D01*
X43956Y76581D01*
X43892Y76540D01*
X43829Y76497D01*
X43769Y76450D01*
X43712Y76400D01*
X43657Y76347D01*
X43604Y76292D01*
X43554Y76235D01*
X43507Y76175D01*
X43464Y76112D01*
X43423Y76048D01*
X43385Y75982D01*
X43351Y75914D01*
X43320Y75844D01*
X43293Y75773D01*
X43269Y75701D01*
X43249Y75627D01*
X43232Y75553D01*
X43219Y75478D01*
X43209Y75402D01*
X43204Y75326D01*
X43202Y75250D01*
X43202Y72766D01*
X43204Y72690D01*
X43209Y72614D01*
X43219Y72538D01*
X43232Y72463D01*
X43249Y72389D01*
X43269Y72315D01*
X43293Y72243D01*
X43320Y72172D01*
X43351Y72102D01*
X43385Y72034D01*
X43423Y71968D01*
X43464Y71904D01*
X43507Y71841D01*
X43554Y71781D01*
X43604Y71724D01*
X43657Y71669D01*
X43712Y71616D01*
X43769Y71566D01*
X43829Y71519D01*
X43892Y71476D01*
X43956Y71435D01*
X44022Y71397D01*
X44090Y71363D01*
X44160Y71332D01*
X44231Y71305D01*
X44303Y71281D01*
X44377Y71261D01*
X44451Y71244D01*
X44526Y71231D01*
X44602Y71221D01*
X44678Y71216D01*
X44754Y71214D01*
X46306Y71214D01*
X40637Y75560D02*
X39085Y76802D01*
X39085Y71214D01*
X40637Y71214D02*
X37532Y71214D01*
D11*
X77470Y37846D02*
X80010Y37846D01*
X80010Y28194D02*
X77470Y28194D01*
D10*
X82550Y40894D02*
X82550Y46482D01*
X80998Y46482D01*
X80921Y46480D01*
X80843Y46474D01*
X80767Y46465D01*
X80690Y46451D01*
X80615Y46434D01*
X80541Y46413D01*
X80467Y46388D01*
X80395Y46360D01*
X80325Y46328D01*
X80256Y46293D01*
X80189Y46254D01*
X80124Y46212D01*
X80061Y46167D01*
X80000Y46119D01*
X79942Y46068D01*
X79887Y46014D01*
X79834Y45957D01*
X79785Y45898D01*
X79738Y45836D01*
X79694Y45772D01*
X79654Y45706D01*
X79617Y45638D01*
X79583Y45568D01*
X79553Y45497D01*
X79527Y45424D01*
X79504Y45350D01*
X79485Y45275D01*
X79470Y45200D01*
X79458Y45123D01*
X79450Y45046D01*
X79446Y44969D01*
X79446Y44891D01*
X79450Y44814D01*
X79458Y44737D01*
X79470Y44660D01*
X79485Y44585D01*
X79504Y44510D01*
X79527Y44436D01*
X79553Y44363D01*
X79583Y44292D01*
X79617Y44222D01*
X79654Y44154D01*
X79694Y44088D01*
X79738Y44024D01*
X79785Y43962D01*
X79834Y43903D01*
X79887Y43846D01*
X79942Y43792D01*
X80000Y43741D01*
X80061Y43693D01*
X80124Y43648D01*
X80189Y43606D01*
X80256Y43567D01*
X80325Y43532D01*
X80395Y43500D01*
X80467Y43472D01*
X80541Y43447D01*
X80615Y43426D01*
X80690Y43409D01*
X80767Y43395D01*
X80843Y43386D01*
X80921Y43380D01*
X80998Y43378D01*
X82550Y43378D01*
X80687Y43378D02*
X79446Y40894D01*
X77100Y45240D02*
X75548Y46482D01*
X75548Y40894D01*
X77100Y40894D02*
X73995Y40894D01*
D11*
X90170Y53594D02*
X92710Y53594D01*
X92710Y63246D02*
X90170Y63246D01*
D10*
X95250Y66294D02*
X95250Y71882D01*
X93698Y71882D01*
X93621Y71880D01*
X93543Y71874D01*
X93467Y71865D01*
X93390Y71851D01*
X93315Y71834D01*
X93241Y71813D01*
X93167Y71788D01*
X93095Y71760D01*
X93025Y71728D01*
X92956Y71693D01*
X92889Y71654D01*
X92824Y71612D01*
X92761Y71567D01*
X92700Y71519D01*
X92642Y71468D01*
X92587Y71414D01*
X92534Y71357D01*
X92485Y71298D01*
X92438Y71236D01*
X92394Y71172D01*
X92354Y71106D01*
X92317Y71038D01*
X92283Y70968D01*
X92253Y70897D01*
X92227Y70824D01*
X92204Y70750D01*
X92185Y70675D01*
X92170Y70600D01*
X92158Y70523D01*
X92150Y70446D01*
X92146Y70369D01*
X92146Y70291D01*
X92150Y70214D01*
X92158Y70137D01*
X92170Y70060D01*
X92185Y69985D01*
X92204Y69910D01*
X92227Y69836D01*
X92253Y69763D01*
X92283Y69692D01*
X92317Y69622D01*
X92354Y69554D01*
X92394Y69488D01*
X92438Y69424D01*
X92485Y69362D01*
X92534Y69303D01*
X92587Y69246D01*
X92642Y69192D01*
X92700Y69141D01*
X92761Y69093D01*
X92824Y69048D01*
X92889Y69006D01*
X92956Y68967D01*
X93025Y68932D01*
X93095Y68900D01*
X93167Y68872D01*
X93241Y68847D01*
X93315Y68826D01*
X93390Y68809D01*
X93467Y68795D01*
X93543Y68786D01*
X93621Y68780D01*
X93698Y68778D01*
X95250Y68778D01*
X93387Y68778D02*
X92146Y66294D01*
X89800Y66294D02*
X88248Y66294D01*
X88171Y66296D01*
X88093Y66302D01*
X88017Y66311D01*
X87940Y66325D01*
X87865Y66342D01*
X87791Y66363D01*
X87717Y66388D01*
X87645Y66416D01*
X87575Y66448D01*
X87506Y66483D01*
X87439Y66522D01*
X87374Y66564D01*
X87311Y66609D01*
X87250Y66657D01*
X87192Y66708D01*
X87137Y66762D01*
X87084Y66819D01*
X87035Y66878D01*
X86988Y66940D01*
X86944Y67004D01*
X86904Y67070D01*
X86867Y67138D01*
X86833Y67208D01*
X86803Y67279D01*
X86777Y67352D01*
X86754Y67426D01*
X86735Y67501D01*
X86720Y67576D01*
X86708Y67653D01*
X86700Y67730D01*
X86696Y67807D01*
X86696Y67885D01*
X86700Y67962D01*
X86708Y68039D01*
X86720Y68116D01*
X86735Y68191D01*
X86754Y68266D01*
X86777Y68340D01*
X86803Y68413D01*
X86833Y68484D01*
X86867Y68554D01*
X86904Y68622D01*
X86944Y68688D01*
X86988Y68752D01*
X87035Y68814D01*
X87084Y68873D01*
X87137Y68930D01*
X87192Y68984D01*
X87250Y69035D01*
X87311Y69083D01*
X87374Y69128D01*
X87439Y69170D01*
X87506Y69209D01*
X87575Y69244D01*
X87645Y69276D01*
X87717Y69304D01*
X87791Y69329D01*
X87865Y69350D01*
X87940Y69367D01*
X88017Y69381D01*
X88093Y69390D01*
X88171Y69396D01*
X88248Y69398D01*
X87937Y71882D02*
X89800Y71882D01*
X87937Y71882D02*
X87867Y71880D01*
X87798Y71874D01*
X87729Y71864D01*
X87661Y71851D01*
X87593Y71833D01*
X87527Y71812D01*
X87462Y71787D01*
X87398Y71759D01*
X87336Y71727D01*
X87276Y71692D01*
X87218Y71653D01*
X87163Y71611D01*
X87109Y71566D01*
X87059Y71518D01*
X87011Y71468D01*
X86966Y71414D01*
X86924Y71359D01*
X86885Y71301D01*
X86850Y71241D01*
X86818Y71179D01*
X86790Y71115D01*
X86765Y71050D01*
X86744Y70984D01*
X86726Y70916D01*
X86713Y70848D01*
X86703Y70779D01*
X86697Y70710D01*
X86695Y70640D01*
X86697Y70570D01*
X86703Y70501D01*
X86713Y70432D01*
X86726Y70364D01*
X86744Y70296D01*
X86765Y70230D01*
X86790Y70165D01*
X86818Y70101D01*
X86850Y70039D01*
X86885Y69979D01*
X86924Y69921D01*
X86966Y69866D01*
X87011Y69812D01*
X87059Y69762D01*
X87109Y69714D01*
X87163Y69669D01*
X87218Y69627D01*
X87276Y69588D01*
X87336Y69553D01*
X87398Y69521D01*
X87462Y69493D01*
X87527Y69468D01*
X87593Y69447D01*
X87661Y69429D01*
X87729Y69416D01*
X87798Y69406D01*
X87867Y69400D01*
X87937Y69398D01*
X89179Y69398D01*
D11*
X143764Y107696D02*
X143764Y115824D01*
X138176Y115824D01*
X115316Y115824D02*
X115316Y107696D01*
X115316Y115824D02*
X120904Y115824D01*
D10*
X130674Y112342D02*
X130674Y106754D01*
X132226Y112342D02*
X129122Y112342D01*
X127105Y106754D02*
X125553Y106754D01*
X125476Y106756D01*
X125398Y106762D01*
X125322Y106771D01*
X125245Y106785D01*
X125170Y106802D01*
X125096Y106823D01*
X125022Y106848D01*
X124950Y106876D01*
X124880Y106908D01*
X124811Y106943D01*
X124744Y106982D01*
X124679Y107024D01*
X124616Y107069D01*
X124555Y107117D01*
X124497Y107168D01*
X124442Y107222D01*
X124389Y107279D01*
X124340Y107338D01*
X124293Y107400D01*
X124249Y107464D01*
X124209Y107530D01*
X124172Y107598D01*
X124138Y107668D01*
X124108Y107739D01*
X124082Y107812D01*
X124059Y107886D01*
X124040Y107961D01*
X124025Y108036D01*
X124013Y108113D01*
X124005Y108190D01*
X124001Y108267D01*
X124001Y108345D01*
X124005Y108422D01*
X124013Y108499D01*
X124025Y108576D01*
X124040Y108651D01*
X124059Y108726D01*
X124082Y108800D01*
X124108Y108873D01*
X124138Y108944D01*
X124172Y109014D01*
X124209Y109082D01*
X124249Y109148D01*
X124293Y109212D01*
X124340Y109274D01*
X124389Y109333D01*
X124442Y109390D01*
X124497Y109444D01*
X124555Y109495D01*
X124616Y109543D01*
X124679Y109588D01*
X124744Y109630D01*
X124811Y109669D01*
X124880Y109704D01*
X124950Y109736D01*
X125022Y109764D01*
X125096Y109789D01*
X125170Y109810D01*
X125245Y109827D01*
X125322Y109841D01*
X125398Y109850D01*
X125476Y109856D01*
X125553Y109858D01*
X125243Y112342D02*
X127105Y112342D01*
X125243Y112342D02*
X125173Y112340D01*
X125104Y112334D01*
X125035Y112324D01*
X124967Y112311D01*
X124899Y112293D01*
X124833Y112272D01*
X124768Y112247D01*
X124704Y112219D01*
X124642Y112187D01*
X124582Y112152D01*
X124524Y112113D01*
X124469Y112071D01*
X124415Y112026D01*
X124365Y111978D01*
X124317Y111928D01*
X124272Y111874D01*
X124230Y111819D01*
X124191Y111761D01*
X124156Y111701D01*
X124124Y111639D01*
X124096Y111575D01*
X124071Y111510D01*
X124050Y111444D01*
X124032Y111376D01*
X124019Y111308D01*
X124009Y111239D01*
X124003Y111170D01*
X124001Y111100D01*
X124003Y111030D01*
X124009Y110961D01*
X124019Y110892D01*
X124032Y110824D01*
X124050Y110756D01*
X124071Y110690D01*
X124096Y110625D01*
X124124Y110561D01*
X124156Y110499D01*
X124191Y110439D01*
X124230Y110381D01*
X124272Y110326D01*
X124317Y110272D01*
X124365Y110222D01*
X124415Y110174D01*
X124469Y110129D01*
X124524Y110087D01*
X124582Y110048D01*
X124642Y110013D01*
X124704Y109981D01*
X124768Y109953D01*
X124833Y109928D01*
X124899Y109907D01*
X124967Y109889D01*
X125035Y109876D01*
X125104Y109866D01*
X125173Y109860D01*
X125243Y109858D01*
X126485Y109858D01*
D12*
X137540Y40020D02*
X143540Y40020D01*
X143540Y32020D01*
X121540Y40020D02*
X115540Y40020D01*
X115540Y32020D01*
D13*
X132100Y32385D02*
X132100Y37211D01*
X130760Y37211D02*
X133441Y37211D01*
X128320Y35066D02*
X126712Y35066D01*
X126647Y35064D01*
X126583Y35058D01*
X126519Y35048D01*
X126455Y35035D01*
X126393Y35017D01*
X126332Y34996D01*
X126272Y34972D01*
X126214Y34943D01*
X126157Y34911D01*
X126103Y34876D01*
X126051Y34838D01*
X126001Y34796D01*
X125954Y34752D01*
X125910Y34705D01*
X125868Y34655D01*
X125830Y34603D01*
X125795Y34549D01*
X125763Y34492D01*
X125734Y34434D01*
X125710Y34374D01*
X125689Y34313D01*
X125671Y34251D01*
X125658Y34187D01*
X125648Y34123D01*
X125642Y34059D01*
X125640Y33994D01*
X125639Y33994D02*
X125639Y33726D01*
X125641Y33655D01*
X125647Y33583D01*
X125656Y33513D01*
X125669Y33443D01*
X125686Y33373D01*
X125707Y33305D01*
X125731Y33238D01*
X125759Y33172D01*
X125790Y33108D01*
X125825Y33045D01*
X125863Y32985D01*
X125904Y32926D01*
X125948Y32870D01*
X125995Y32816D01*
X126044Y32765D01*
X126097Y32717D01*
X126152Y32671D01*
X126209Y32629D01*
X126269Y32589D01*
X126330Y32553D01*
X126394Y32520D01*
X126459Y32491D01*
X126525Y32465D01*
X126593Y32442D01*
X126662Y32423D01*
X126732Y32408D01*
X126802Y32397D01*
X126873Y32389D01*
X126944Y32385D01*
X127016Y32385D01*
X127087Y32389D01*
X127158Y32397D01*
X127228Y32408D01*
X127298Y32423D01*
X127367Y32442D01*
X127435Y32465D01*
X127501Y32491D01*
X127566Y32520D01*
X127630Y32553D01*
X127691Y32589D01*
X127751Y32629D01*
X127808Y32671D01*
X127863Y32717D01*
X127916Y32765D01*
X127965Y32816D01*
X128012Y32870D01*
X128056Y32926D01*
X128097Y32985D01*
X128135Y33045D01*
X128170Y33108D01*
X128201Y33172D01*
X128229Y33238D01*
X128253Y33305D01*
X128274Y33373D01*
X128291Y33443D01*
X128304Y33513D01*
X128313Y33583D01*
X128319Y33655D01*
X128321Y33726D01*
X128320Y33726D02*
X128320Y35066D01*
X128318Y35157D01*
X128312Y35248D01*
X128303Y35338D01*
X128289Y35429D01*
X128272Y35518D01*
X128251Y35606D01*
X128226Y35694D01*
X128197Y35781D01*
X128165Y35866D01*
X128130Y35950D01*
X128090Y36032D01*
X128048Y36112D01*
X128002Y36191D01*
X127952Y36267D01*
X127900Y36341D01*
X127844Y36414D01*
X127785Y36483D01*
X127724Y36550D01*
X127659Y36615D01*
X127592Y36676D01*
X127523Y36735D01*
X127450Y36791D01*
X127376Y36843D01*
X127300Y36893D01*
X127221Y36939D01*
X127141Y36981D01*
X127059Y37021D01*
X126975Y37056D01*
X126890Y37088D01*
X126803Y37117D01*
X126715Y37142D01*
X126627Y37163D01*
X126538Y37180D01*
X126447Y37194D01*
X126357Y37203D01*
X126266Y37209D01*
X126175Y37211D01*
M02*
