G04 EAGLE Gerber RS-274X export*
G75*
%MOMM*%
%FSLAX34Y34*%
%LPD*%
%INSilkscreen Top*%
%IPPOS*%
%AMOC8*
5,1,8,0,0,1.08239X$1,22.5*%
G01*
%ADD10C,0.050800*%
%ADD11C,0.152400*%
%ADD12C,0.127000*%
%ADD13C,0.203200*%


D10*
X157226Y63077D02*
X157224Y63147D01*
X157218Y63216D01*
X157208Y63285D01*
X157195Y63353D01*
X157177Y63421D01*
X157156Y63487D01*
X157131Y63552D01*
X157103Y63616D01*
X157071Y63678D01*
X157036Y63738D01*
X156997Y63796D01*
X156955Y63851D01*
X156910Y63905D01*
X156862Y63955D01*
X156812Y64003D01*
X156758Y64048D01*
X156703Y64090D01*
X156645Y64129D01*
X156585Y64164D01*
X156523Y64196D01*
X156459Y64224D01*
X156394Y64249D01*
X156328Y64270D01*
X156260Y64288D01*
X156192Y64301D01*
X156123Y64311D01*
X156054Y64317D01*
X155984Y64319D01*
X157226Y63077D02*
X157224Y62978D01*
X157219Y62880D01*
X157209Y62782D01*
X157196Y62684D01*
X157180Y62587D01*
X157160Y62490D01*
X157136Y62395D01*
X157108Y62300D01*
X157077Y62206D01*
X157043Y62114D01*
X157005Y62023D01*
X156964Y61933D01*
X156919Y61845D01*
X156871Y61759D01*
X156820Y61675D01*
X156766Y61593D01*
X156708Y61512D01*
X156648Y61434D01*
X156585Y61359D01*
X156519Y61285D01*
X156450Y61215D01*
X152880Y61369D02*
X152810Y61371D01*
X152741Y61377D01*
X152672Y61387D01*
X152604Y61400D01*
X152536Y61418D01*
X152470Y61439D01*
X152405Y61464D01*
X152341Y61492D01*
X152279Y61524D01*
X152219Y61559D01*
X152161Y61598D01*
X152106Y61640D01*
X152052Y61685D01*
X152002Y61733D01*
X151954Y61783D01*
X151909Y61837D01*
X151867Y61892D01*
X151828Y61950D01*
X151793Y62010D01*
X151761Y62072D01*
X151733Y62136D01*
X151708Y62201D01*
X151687Y62267D01*
X151669Y62335D01*
X151656Y62403D01*
X151646Y62472D01*
X151640Y62541D01*
X151638Y62611D01*
X151640Y62705D01*
X151646Y62798D01*
X151655Y62891D01*
X151668Y62984D01*
X151685Y63076D01*
X151705Y63167D01*
X151730Y63258D01*
X151757Y63347D01*
X151789Y63435D01*
X151824Y63522D01*
X151862Y63608D01*
X151904Y63691D01*
X151949Y63774D01*
X151997Y63854D01*
X152049Y63932D01*
X152104Y64008D01*
X153966Y61990D02*
X153930Y61931D01*
X153890Y61875D01*
X153847Y61821D01*
X153802Y61769D01*
X153753Y61720D01*
X153702Y61674D01*
X153649Y61631D01*
X153593Y61590D01*
X153535Y61553D01*
X153475Y61518D01*
X153414Y61488D01*
X153351Y61460D01*
X153286Y61436D01*
X153220Y61416D01*
X153153Y61399D01*
X153086Y61386D01*
X153018Y61377D01*
X152949Y61371D01*
X152880Y61369D01*
X154898Y63697D02*
X154934Y63756D01*
X154974Y63812D01*
X155017Y63866D01*
X155062Y63918D01*
X155111Y63967D01*
X155162Y64013D01*
X155215Y64056D01*
X155271Y64097D01*
X155329Y64134D01*
X155389Y64169D01*
X155450Y64199D01*
X155513Y64227D01*
X155578Y64251D01*
X155644Y64271D01*
X155711Y64288D01*
X155778Y64301D01*
X155846Y64310D01*
X155915Y64316D01*
X155984Y64318D01*
X154898Y63698D02*
X153966Y61990D01*
X153190Y66844D02*
X155674Y66844D01*
X153190Y66845D02*
X153113Y66847D01*
X153035Y66853D01*
X152959Y66862D01*
X152882Y66876D01*
X152807Y66893D01*
X152733Y66914D01*
X152659Y66939D01*
X152587Y66967D01*
X152517Y66999D01*
X152448Y67034D01*
X152381Y67073D01*
X152316Y67115D01*
X152253Y67160D01*
X152192Y67208D01*
X152134Y67259D01*
X152079Y67313D01*
X152026Y67370D01*
X151977Y67429D01*
X151930Y67491D01*
X151886Y67555D01*
X151846Y67621D01*
X151809Y67689D01*
X151775Y67759D01*
X151745Y67830D01*
X151719Y67903D01*
X151696Y67977D01*
X151677Y68052D01*
X151662Y68127D01*
X151650Y68204D01*
X151642Y68281D01*
X151638Y68358D01*
X151638Y68436D01*
X151642Y68513D01*
X151650Y68590D01*
X151662Y68667D01*
X151677Y68742D01*
X151696Y68817D01*
X151719Y68891D01*
X151745Y68964D01*
X151775Y69035D01*
X151809Y69105D01*
X151846Y69173D01*
X151886Y69239D01*
X151930Y69303D01*
X151977Y69365D01*
X152026Y69424D01*
X152079Y69481D01*
X152134Y69535D01*
X152192Y69586D01*
X152253Y69634D01*
X152316Y69679D01*
X152381Y69721D01*
X152448Y69760D01*
X152517Y69795D01*
X152587Y69827D01*
X152659Y69855D01*
X152733Y69880D01*
X152807Y69901D01*
X152882Y69918D01*
X152959Y69932D01*
X153035Y69941D01*
X153113Y69947D01*
X153190Y69949D01*
X155674Y69949D01*
X155751Y69947D01*
X155829Y69941D01*
X155905Y69932D01*
X155982Y69918D01*
X156057Y69901D01*
X156131Y69880D01*
X156205Y69855D01*
X156277Y69827D01*
X156347Y69795D01*
X156416Y69760D01*
X156483Y69721D01*
X156548Y69679D01*
X156611Y69634D01*
X156672Y69586D01*
X156730Y69535D01*
X156785Y69481D01*
X156838Y69424D01*
X156887Y69365D01*
X156934Y69303D01*
X156978Y69239D01*
X157018Y69173D01*
X157055Y69105D01*
X157089Y69035D01*
X157119Y68964D01*
X157145Y68891D01*
X157168Y68817D01*
X157187Y68742D01*
X157202Y68667D01*
X157214Y68590D01*
X157222Y68513D01*
X157226Y68436D01*
X157226Y68358D01*
X157222Y68281D01*
X157214Y68204D01*
X157202Y68127D01*
X157187Y68052D01*
X157168Y67977D01*
X157145Y67903D01*
X157119Y67830D01*
X157089Y67759D01*
X157055Y67689D01*
X157018Y67621D01*
X156978Y67555D01*
X156934Y67491D01*
X156887Y67429D01*
X156838Y67370D01*
X156785Y67313D01*
X156730Y67259D01*
X156672Y67208D01*
X156611Y67160D01*
X156548Y67115D01*
X156483Y67073D01*
X156416Y67034D01*
X156347Y66999D01*
X156277Y66967D01*
X156205Y66939D01*
X156131Y66914D01*
X156057Y66893D01*
X155982Y66876D01*
X155905Y66862D01*
X155829Y66853D01*
X155751Y66847D01*
X155674Y66845D01*
X155984Y69328D02*
X157226Y70570D01*
X157226Y72406D02*
X151638Y72406D01*
X151638Y73958D01*
X151640Y74035D01*
X151646Y74113D01*
X151655Y74189D01*
X151669Y74266D01*
X151686Y74341D01*
X151707Y74415D01*
X151732Y74489D01*
X151760Y74561D01*
X151792Y74631D01*
X151827Y74700D01*
X151866Y74767D01*
X151908Y74832D01*
X151953Y74895D01*
X152001Y74956D01*
X152052Y75014D01*
X152106Y75069D01*
X152163Y75122D01*
X152222Y75171D01*
X152284Y75218D01*
X152348Y75262D01*
X152414Y75302D01*
X152482Y75339D01*
X152552Y75373D01*
X152623Y75403D01*
X152696Y75429D01*
X152770Y75452D01*
X152845Y75471D01*
X152920Y75486D01*
X152997Y75498D01*
X153074Y75506D01*
X153151Y75510D01*
X153229Y75510D01*
X153306Y75506D01*
X153383Y75498D01*
X153460Y75486D01*
X153535Y75471D01*
X153610Y75452D01*
X153684Y75429D01*
X153757Y75403D01*
X153828Y75373D01*
X153898Y75339D01*
X153966Y75302D01*
X154032Y75262D01*
X154096Y75218D01*
X154158Y75171D01*
X154217Y75122D01*
X154274Y75069D01*
X154328Y75014D01*
X154379Y74956D01*
X154427Y74895D01*
X154472Y74832D01*
X154514Y74767D01*
X154553Y74700D01*
X154588Y74631D01*
X154620Y74561D01*
X154648Y74489D01*
X154673Y74415D01*
X154694Y74341D01*
X154711Y74266D01*
X154725Y74189D01*
X154734Y74113D01*
X154740Y74035D01*
X154742Y73958D01*
X154742Y72406D01*
X154742Y74268D02*
X157226Y75510D01*
X157226Y42446D02*
X151638Y42446D01*
X151638Y40894D02*
X151638Y43998D01*
X151638Y46234D02*
X157226Y46234D01*
X151638Y46234D02*
X151638Y47786D01*
X151640Y47863D01*
X151646Y47941D01*
X151655Y48017D01*
X151669Y48094D01*
X151686Y48169D01*
X151707Y48243D01*
X151732Y48317D01*
X151760Y48389D01*
X151792Y48459D01*
X151827Y48528D01*
X151866Y48595D01*
X151908Y48660D01*
X151953Y48723D01*
X152001Y48784D01*
X152052Y48842D01*
X152106Y48897D01*
X152163Y48950D01*
X152222Y48999D01*
X152284Y49046D01*
X152348Y49090D01*
X152414Y49130D01*
X152482Y49167D01*
X152552Y49201D01*
X152623Y49231D01*
X152696Y49257D01*
X152770Y49280D01*
X152845Y49299D01*
X152920Y49314D01*
X152997Y49326D01*
X153074Y49334D01*
X153151Y49338D01*
X153229Y49338D01*
X153306Y49334D01*
X153383Y49326D01*
X153460Y49314D01*
X153535Y49299D01*
X153610Y49280D01*
X153684Y49257D01*
X153757Y49231D01*
X153828Y49201D01*
X153898Y49167D01*
X153966Y49130D01*
X154032Y49090D01*
X154096Y49046D01*
X154158Y48999D01*
X154217Y48950D01*
X154274Y48897D01*
X154328Y48842D01*
X154379Y48784D01*
X154427Y48723D01*
X154472Y48660D01*
X154514Y48595D01*
X154553Y48528D01*
X154588Y48459D01*
X154620Y48389D01*
X154648Y48317D01*
X154673Y48243D01*
X154694Y48169D01*
X154711Y48094D01*
X154725Y48017D01*
X154734Y47941D01*
X154740Y47863D01*
X154742Y47786D01*
X154742Y46234D01*
X154742Y48096D02*
X157226Y49338D01*
X157226Y52139D02*
X151638Y52139D01*
X157226Y51518D02*
X157226Y52760D01*
X151638Y52760D02*
X151638Y51518D01*
X154122Y13518D02*
X154122Y12587D01*
X154122Y13518D02*
X157226Y13518D01*
X157226Y11656D01*
X157224Y11586D01*
X157218Y11517D01*
X157208Y11448D01*
X157195Y11380D01*
X157177Y11312D01*
X157156Y11246D01*
X157131Y11181D01*
X157103Y11117D01*
X157071Y11055D01*
X157036Y10995D01*
X156997Y10937D01*
X156955Y10882D01*
X156910Y10828D01*
X156862Y10778D01*
X156812Y10730D01*
X156758Y10685D01*
X156703Y10643D01*
X156645Y10604D01*
X156585Y10569D01*
X156523Y10537D01*
X156459Y10509D01*
X156394Y10484D01*
X156328Y10463D01*
X156260Y10445D01*
X156192Y10432D01*
X156123Y10422D01*
X156054Y10416D01*
X155984Y10414D01*
X152880Y10414D01*
X152810Y10416D01*
X152741Y10422D01*
X152672Y10432D01*
X152604Y10445D01*
X152536Y10463D01*
X152470Y10484D01*
X152405Y10509D01*
X152341Y10537D01*
X152279Y10569D01*
X152219Y10604D01*
X152161Y10643D01*
X152106Y10685D01*
X152052Y10730D01*
X152002Y10778D01*
X151954Y10828D01*
X151909Y10882D01*
X151867Y10937D01*
X151828Y10995D01*
X151793Y11055D01*
X151761Y11117D01*
X151733Y11181D01*
X151708Y11246D01*
X151687Y11312D01*
X151669Y11380D01*
X151656Y11448D01*
X151646Y11517D01*
X151640Y11586D01*
X151638Y11656D01*
X151638Y13518D01*
X151638Y16266D02*
X157226Y16266D01*
X157226Y19371D02*
X151638Y16266D01*
X151638Y19371D02*
X157226Y19371D01*
X157226Y22118D02*
X151638Y22118D01*
X151638Y23670D01*
X151640Y23746D01*
X151645Y23822D01*
X151655Y23898D01*
X151668Y23973D01*
X151685Y24047D01*
X151705Y24121D01*
X151729Y24193D01*
X151756Y24264D01*
X151787Y24334D01*
X151821Y24402D01*
X151859Y24468D01*
X151900Y24532D01*
X151943Y24595D01*
X151990Y24655D01*
X152040Y24712D01*
X152093Y24767D01*
X152148Y24820D01*
X152205Y24870D01*
X152265Y24917D01*
X152328Y24960D01*
X152392Y25001D01*
X152458Y25039D01*
X152526Y25073D01*
X152596Y25104D01*
X152667Y25131D01*
X152740Y25155D01*
X152813Y25175D01*
X152887Y25192D01*
X152962Y25205D01*
X153038Y25215D01*
X153114Y25220D01*
X153190Y25222D01*
X153190Y25223D02*
X155674Y25223D01*
X155674Y25222D02*
X155750Y25220D01*
X155826Y25215D01*
X155902Y25205D01*
X155977Y25192D01*
X156051Y25175D01*
X156125Y25155D01*
X156197Y25131D01*
X156268Y25104D01*
X156338Y25073D01*
X156406Y25039D01*
X156472Y25001D01*
X156536Y24960D01*
X156599Y24917D01*
X156659Y24870D01*
X156716Y24820D01*
X156771Y24767D01*
X156824Y24712D01*
X156874Y24655D01*
X156921Y24595D01*
X156964Y24532D01*
X157005Y24468D01*
X157043Y24402D01*
X157077Y24334D01*
X157108Y24264D01*
X157135Y24193D01*
X157159Y24121D01*
X157179Y24047D01*
X157196Y23973D01*
X157209Y23898D01*
X157219Y23822D01*
X157224Y23746D01*
X157226Y23670D01*
X157226Y22118D01*
X157226Y86614D02*
X151638Y86614D01*
X151638Y89098D01*
X154122Y89098D02*
X154122Y86614D01*
X151638Y91394D02*
X157226Y91394D01*
X151638Y91394D02*
X151638Y92946D01*
X151640Y93023D01*
X151646Y93101D01*
X151655Y93177D01*
X151669Y93254D01*
X151686Y93329D01*
X151707Y93403D01*
X151732Y93477D01*
X151760Y93549D01*
X151792Y93619D01*
X151827Y93688D01*
X151866Y93755D01*
X151908Y93820D01*
X151953Y93883D01*
X152001Y93944D01*
X152052Y94002D01*
X152106Y94057D01*
X152163Y94110D01*
X152222Y94159D01*
X152284Y94206D01*
X152348Y94250D01*
X152414Y94290D01*
X152482Y94327D01*
X152552Y94361D01*
X152623Y94391D01*
X152696Y94417D01*
X152770Y94440D01*
X152845Y94459D01*
X152920Y94474D01*
X152997Y94486D01*
X153074Y94494D01*
X153151Y94498D01*
X153229Y94498D01*
X153306Y94494D01*
X153383Y94486D01*
X153460Y94474D01*
X153535Y94459D01*
X153610Y94440D01*
X153684Y94417D01*
X153757Y94391D01*
X153828Y94361D01*
X153898Y94327D01*
X153966Y94290D01*
X154032Y94250D01*
X154096Y94206D01*
X154158Y94159D01*
X154217Y94110D01*
X154274Y94057D01*
X154328Y94002D01*
X154379Y93944D01*
X154427Y93883D01*
X154472Y93820D01*
X154514Y93755D01*
X154553Y93688D01*
X154588Y93619D01*
X154620Y93549D01*
X154648Y93477D01*
X154673Y93403D01*
X154694Y93329D01*
X154711Y93254D01*
X154725Y93177D01*
X154734Y93101D01*
X154740Y93023D01*
X154742Y92946D01*
X154742Y91394D01*
X154742Y93257D02*
X157226Y94498D01*
X157226Y97038D02*
X157226Y99522D01*
X157226Y97038D02*
X151638Y97038D01*
X151638Y99522D01*
X154122Y98901D02*
X154122Y97038D01*
X153190Y101926D02*
X155674Y101926D01*
X153190Y101926D02*
X153113Y101928D01*
X153035Y101934D01*
X152959Y101943D01*
X152882Y101957D01*
X152807Y101974D01*
X152733Y101995D01*
X152659Y102020D01*
X152587Y102048D01*
X152517Y102080D01*
X152448Y102115D01*
X152381Y102154D01*
X152316Y102196D01*
X152253Y102241D01*
X152192Y102289D01*
X152134Y102340D01*
X152079Y102394D01*
X152026Y102451D01*
X151977Y102510D01*
X151930Y102572D01*
X151886Y102636D01*
X151846Y102702D01*
X151809Y102770D01*
X151775Y102840D01*
X151745Y102911D01*
X151719Y102984D01*
X151696Y103058D01*
X151677Y103133D01*
X151662Y103208D01*
X151650Y103285D01*
X151642Y103362D01*
X151638Y103439D01*
X151638Y103517D01*
X151642Y103594D01*
X151650Y103671D01*
X151662Y103748D01*
X151677Y103823D01*
X151696Y103898D01*
X151719Y103972D01*
X151745Y104045D01*
X151775Y104116D01*
X151809Y104186D01*
X151846Y104254D01*
X151886Y104320D01*
X151930Y104384D01*
X151977Y104446D01*
X152026Y104505D01*
X152079Y104562D01*
X152134Y104616D01*
X152192Y104667D01*
X152253Y104715D01*
X152316Y104760D01*
X152381Y104802D01*
X152448Y104841D01*
X152517Y104876D01*
X152587Y104908D01*
X152659Y104936D01*
X152733Y104961D01*
X152807Y104982D01*
X152882Y104999D01*
X152959Y105013D01*
X153035Y105022D01*
X153113Y105028D01*
X153190Y105030D01*
X155674Y105030D01*
X155751Y105028D01*
X155829Y105022D01*
X155905Y105013D01*
X155982Y104999D01*
X156057Y104982D01*
X156131Y104961D01*
X156205Y104936D01*
X156277Y104908D01*
X156347Y104876D01*
X156416Y104841D01*
X156483Y104802D01*
X156548Y104760D01*
X156611Y104715D01*
X156672Y104667D01*
X156730Y104616D01*
X156785Y104562D01*
X156838Y104505D01*
X156887Y104446D01*
X156934Y104384D01*
X156978Y104320D01*
X157018Y104254D01*
X157055Y104186D01*
X157089Y104116D01*
X157119Y104045D01*
X157145Y103972D01*
X157168Y103898D01*
X157187Y103823D01*
X157202Y103748D01*
X157214Y103671D01*
X157222Y103594D01*
X157226Y103517D01*
X157226Y103439D01*
X157222Y103362D01*
X157214Y103285D01*
X157202Y103208D01*
X157187Y103133D01*
X157168Y103058D01*
X157145Y102984D01*
X157119Y102911D01*
X157089Y102840D01*
X157055Y102770D01*
X157018Y102702D01*
X156978Y102636D01*
X156934Y102572D01*
X156887Y102510D01*
X156838Y102451D01*
X156785Y102394D01*
X156730Y102340D01*
X156672Y102289D01*
X156611Y102241D01*
X156548Y102196D01*
X156483Y102154D01*
X156416Y102115D01*
X156347Y102080D01*
X156277Y102048D01*
X156205Y102020D01*
X156131Y101995D01*
X156057Y101974D01*
X155982Y101957D01*
X155905Y101943D01*
X155829Y101934D01*
X155751Y101928D01*
X155674Y101926D01*
X155984Y104409D02*
X157226Y105651D01*
X157226Y113877D02*
X151638Y112014D01*
X151638Y115739D02*
X157226Y113877D01*
X157226Y119036D02*
X157226Y120278D01*
X157226Y119036D02*
X157224Y118966D01*
X157218Y118897D01*
X157208Y118828D01*
X157195Y118760D01*
X157177Y118692D01*
X157156Y118626D01*
X157131Y118561D01*
X157103Y118497D01*
X157071Y118435D01*
X157036Y118375D01*
X156997Y118317D01*
X156955Y118262D01*
X156910Y118208D01*
X156862Y118158D01*
X156812Y118110D01*
X156758Y118065D01*
X156703Y118023D01*
X156645Y117984D01*
X156585Y117949D01*
X156523Y117917D01*
X156459Y117889D01*
X156394Y117864D01*
X156328Y117843D01*
X156260Y117825D01*
X156192Y117812D01*
X156123Y117802D01*
X156054Y117796D01*
X155984Y117794D01*
X155984Y117795D02*
X152880Y117795D01*
X152880Y117794D02*
X152810Y117796D01*
X152741Y117802D01*
X152672Y117812D01*
X152604Y117825D01*
X152536Y117843D01*
X152470Y117864D01*
X152405Y117889D01*
X152341Y117917D01*
X152279Y117949D01*
X152219Y117984D01*
X152161Y118023D01*
X152106Y118065D01*
X152052Y118110D01*
X152002Y118158D01*
X151954Y118208D01*
X151909Y118262D01*
X151867Y118317D01*
X151828Y118375D01*
X151793Y118435D01*
X151761Y118497D01*
X151733Y118561D01*
X151708Y118626D01*
X151687Y118692D01*
X151669Y118760D01*
X151656Y118828D01*
X151646Y118897D01*
X151640Y118966D01*
X151638Y119036D01*
X151638Y120278D01*
X157226Y123608D02*
X157226Y124850D01*
X157226Y123608D02*
X157224Y123538D01*
X157218Y123469D01*
X157208Y123400D01*
X157195Y123332D01*
X157177Y123264D01*
X157156Y123198D01*
X157131Y123133D01*
X157103Y123069D01*
X157071Y123007D01*
X157036Y122947D01*
X156997Y122889D01*
X156955Y122834D01*
X156910Y122780D01*
X156862Y122730D01*
X156812Y122682D01*
X156758Y122637D01*
X156703Y122595D01*
X156645Y122556D01*
X156585Y122521D01*
X156523Y122489D01*
X156459Y122461D01*
X156394Y122436D01*
X156328Y122415D01*
X156260Y122397D01*
X156192Y122384D01*
X156123Y122374D01*
X156054Y122368D01*
X155984Y122366D01*
X152880Y122366D01*
X152810Y122368D01*
X152741Y122374D01*
X152672Y122384D01*
X152604Y122397D01*
X152536Y122415D01*
X152470Y122436D01*
X152405Y122461D01*
X152341Y122489D01*
X152279Y122521D01*
X152219Y122556D01*
X152161Y122595D01*
X152106Y122637D01*
X152052Y122682D01*
X152002Y122730D01*
X151954Y122780D01*
X151909Y122834D01*
X151867Y122889D01*
X151828Y122947D01*
X151793Y123007D01*
X151761Y123069D01*
X151733Y123133D01*
X151708Y123198D01*
X151687Y123264D01*
X151669Y123332D01*
X151656Y123400D01*
X151646Y123469D01*
X151640Y123538D01*
X151638Y123608D01*
X151638Y124850D01*
X115514Y68834D02*
X114272Y68834D01*
X114202Y68836D01*
X114133Y68842D01*
X114064Y68852D01*
X113996Y68865D01*
X113928Y68883D01*
X113862Y68904D01*
X113797Y68929D01*
X113733Y68957D01*
X113671Y68989D01*
X113611Y69024D01*
X113553Y69063D01*
X113498Y69105D01*
X113444Y69150D01*
X113394Y69198D01*
X113346Y69248D01*
X113301Y69302D01*
X113259Y69357D01*
X113220Y69415D01*
X113185Y69475D01*
X113153Y69537D01*
X113125Y69601D01*
X113100Y69666D01*
X113079Y69732D01*
X113061Y69800D01*
X113048Y69868D01*
X113038Y69937D01*
X113032Y70006D01*
X113030Y70076D01*
X113030Y73180D01*
X113032Y73250D01*
X113038Y73319D01*
X113048Y73388D01*
X113061Y73456D01*
X113079Y73524D01*
X113100Y73590D01*
X113125Y73655D01*
X113153Y73719D01*
X113185Y73781D01*
X113220Y73841D01*
X113259Y73899D01*
X113301Y73954D01*
X113346Y74008D01*
X113394Y74058D01*
X113444Y74106D01*
X113498Y74151D01*
X113553Y74193D01*
X113611Y74232D01*
X113671Y74267D01*
X113733Y74299D01*
X113797Y74327D01*
X113862Y74352D01*
X113928Y74373D01*
X113996Y74391D01*
X114064Y74404D01*
X114133Y74414D01*
X114202Y74420D01*
X114272Y74422D01*
X115514Y74422D01*
X119326Y74422D02*
X119399Y74420D01*
X119472Y74414D01*
X119545Y74405D01*
X119616Y74391D01*
X119688Y74374D01*
X119758Y74354D01*
X119827Y74329D01*
X119894Y74301D01*
X119960Y74270D01*
X120025Y74235D01*
X120087Y74197D01*
X120147Y74155D01*
X120205Y74111D01*
X120261Y74063D01*
X120314Y74013D01*
X120364Y73960D01*
X120412Y73904D01*
X120456Y73846D01*
X120498Y73786D01*
X120536Y73724D01*
X120571Y73659D01*
X120602Y73593D01*
X120630Y73526D01*
X120655Y73457D01*
X120675Y73387D01*
X120692Y73315D01*
X120706Y73244D01*
X120715Y73171D01*
X120721Y73098D01*
X120723Y73025D01*
X119326Y74422D02*
X119242Y74420D01*
X119159Y74414D01*
X119076Y74405D01*
X118994Y74391D01*
X118912Y74374D01*
X118831Y74352D01*
X118751Y74327D01*
X118673Y74299D01*
X118595Y74267D01*
X118520Y74231D01*
X118446Y74192D01*
X118374Y74149D01*
X118304Y74103D01*
X118237Y74054D01*
X118171Y74001D01*
X118109Y73946D01*
X118049Y73888D01*
X117991Y73827D01*
X117937Y73764D01*
X117885Y73698D01*
X117837Y73630D01*
X117792Y73559D01*
X117750Y73487D01*
X117712Y73412D01*
X117677Y73336D01*
X117646Y73259D01*
X117618Y73180D01*
X120256Y71939D02*
X120310Y71992D01*
X120361Y72049D01*
X120409Y72108D01*
X120454Y72169D01*
X120495Y72232D01*
X120534Y72298D01*
X120569Y72365D01*
X120601Y72434D01*
X120629Y72505D01*
X120653Y72576D01*
X120674Y72649D01*
X120691Y72723D01*
X120705Y72798D01*
X120714Y72873D01*
X120720Y72949D01*
X120722Y73025D01*
X120257Y71938D02*
X117618Y68834D01*
X120723Y68834D01*
D11*
X61214Y59690D02*
X61214Y57150D01*
X70866Y57150D02*
X70866Y59690D01*
D10*
X72390Y58674D02*
X72390Y64262D01*
X73942Y64262D01*
X74019Y64260D01*
X74097Y64254D01*
X74173Y64245D01*
X74250Y64231D01*
X74325Y64214D01*
X74399Y64193D01*
X74473Y64168D01*
X74545Y64140D01*
X74615Y64108D01*
X74684Y64073D01*
X74751Y64034D01*
X74816Y63992D01*
X74879Y63947D01*
X74940Y63899D01*
X74998Y63848D01*
X75053Y63794D01*
X75106Y63737D01*
X75155Y63678D01*
X75202Y63616D01*
X75246Y63552D01*
X75286Y63486D01*
X75323Y63418D01*
X75357Y63348D01*
X75387Y63277D01*
X75413Y63204D01*
X75436Y63130D01*
X75455Y63055D01*
X75470Y62980D01*
X75482Y62903D01*
X75490Y62826D01*
X75494Y62749D01*
X75494Y62671D01*
X75490Y62594D01*
X75482Y62517D01*
X75470Y62440D01*
X75455Y62365D01*
X75436Y62290D01*
X75413Y62216D01*
X75387Y62143D01*
X75357Y62072D01*
X75323Y62002D01*
X75286Y61934D01*
X75246Y61868D01*
X75202Y61804D01*
X75155Y61742D01*
X75106Y61683D01*
X75053Y61626D01*
X74998Y61572D01*
X74940Y61521D01*
X74879Y61473D01*
X74816Y61428D01*
X74751Y61386D01*
X74684Y61347D01*
X74615Y61312D01*
X74545Y61280D01*
X74473Y61252D01*
X74399Y61227D01*
X74325Y61206D01*
X74250Y61189D01*
X74173Y61175D01*
X74097Y61166D01*
X74019Y61160D01*
X73942Y61158D01*
X72390Y61158D01*
X74253Y61158D02*
X75494Y58674D01*
X80945Y62865D02*
X80943Y62938D01*
X80937Y63011D01*
X80928Y63084D01*
X80914Y63155D01*
X80897Y63227D01*
X80877Y63297D01*
X80852Y63366D01*
X80824Y63433D01*
X80793Y63499D01*
X80758Y63564D01*
X80720Y63626D01*
X80678Y63686D01*
X80634Y63744D01*
X80586Y63800D01*
X80536Y63853D01*
X80483Y63903D01*
X80427Y63951D01*
X80369Y63995D01*
X80309Y64037D01*
X80247Y64075D01*
X80182Y64110D01*
X80116Y64141D01*
X80049Y64169D01*
X79980Y64194D01*
X79910Y64214D01*
X79838Y64231D01*
X79767Y64245D01*
X79694Y64254D01*
X79621Y64260D01*
X79548Y64262D01*
X79464Y64260D01*
X79381Y64254D01*
X79298Y64245D01*
X79216Y64231D01*
X79134Y64214D01*
X79053Y64192D01*
X78973Y64167D01*
X78895Y64139D01*
X78817Y64107D01*
X78742Y64071D01*
X78668Y64032D01*
X78596Y63989D01*
X78526Y63943D01*
X78459Y63894D01*
X78393Y63841D01*
X78331Y63786D01*
X78271Y63728D01*
X78213Y63667D01*
X78159Y63604D01*
X78107Y63538D01*
X78059Y63470D01*
X78014Y63399D01*
X77972Y63327D01*
X77934Y63252D01*
X77899Y63176D01*
X77868Y63099D01*
X77840Y63020D01*
X80478Y61779D02*
X80532Y61832D01*
X80583Y61889D01*
X80631Y61948D01*
X80676Y62009D01*
X80717Y62072D01*
X80756Y62138D01*
X80791Y62205D01*
X80823Y62274D01*
X80851Y62345D01*
X80875Y62416D01*
X80896Y62489D01*
X80913Y62563D01*
X80927Y62638D01*
X80936Y62713D01*
X80942Y62789D01*
X80944Y62865D01*
X80479Y61778D02*
X77840Y58674D01*
X80945Y58674D01*
D11*
X20066Y59690D02*
X20066Y57150D01*
X10414Y57150D02*
X10414Y59690D01*
D10*
X21590Y58674D02*
X21590Y64262D01*
X23142Y64262D01*
X23219Y64260D01*
X23297Y64254D01*
X23373Y64245D01*
X23450Y64231D01*
X23525Y64214D01*
X23599Y64193D01*
X23673Y64168D01*
X23745Y64140D01*
X23815Y64108D01*
X23884Y64073D01*
X23951Y64034D01*
X24016Y63992D01*
X24079Y63947D01*
X24140Y63899D01*
X24198Y63848D01*
X24253Y63794D01*
X24306Y63737D01*
X24355Y63678D01*
X24402Y63616D01*
X24446Y63552D01*
X24486Y63486D01*
X24523Y63418D01*
X24557Y63348D01*
X24587Y63277D01*
X24613Y63204D01*
X24636Y63130D01*
X24655Y63055D01*
X24670Y62980D01*
X24682Y62903D01*
X24690Y62826D01*
X24694Y62749D01*
X24694Y62671D01*
X24690Y62594D01*
X24682Y62517D01*
X24670Y62440D01*
X24655Y62365D01*
X24636Y62290D01*
X24613Y62216D01*
X24587Y62143D01*
X24557Y62072D01*
X24523Y62002D01*
X24486Y61934D01*
X24446Y61868D01*
X24402Y61804D01*
X24355Y61742D01*
X24306Y61683D01*
X24253Y61626D01*
X24198Y61572D01*
X24140Y61521D01*
X24079Y61473D01*
X24016Y61428D01*
X23951Y61386D01*
X23884Y61347D01*
X23815Y61312D01*
X23745Y61280D01*
X23673Y61252D01*
X23599Y61227D01*
X23525Y61206D01*
X23450Y61189D01*
X23373Y61175D01*
X23297Y61166D01*
X23219Y61160D01*
X23142Y61158D01*
X21590Y61158D01*
X23453Y61158D02*
X24694Y58674D01*
X27040Y59916D02*
X28282Y64262D01*
X27040Y59916D02*
X30145Y59916D01*
X29213Y61158D02*
X29213Y58674D01*
D11*
X73914Y95250D02*
X73914Y97790D01*
X83566Y97790D02*
X83566Y95250D01*
D10*
X87630Y96774D02*
X87630Y102362D01*
X89182Y102362D01*
X89259Y102360D01*
X89337Y102354D01*
X89413Y102345D01*
X89490Y102331D01*
X89565Y102314D01*
X89639Y102293D01*
X89713Y102268D01*
X89785Y102240D01*
X89855Y102208D01*
X89924Y102173D01*
X89991Y102134D01*
X90056Y102092D01*
X90119Y102047D01*
X90180Y101999D01*
X90238Y101948D01*
X90293Y101894D01*
X90346Y101837D01*
X90395Y101778D01*
X90442Y101716D01*
X90486Y101652D01*
X90526Y101586D01*
X90563Y101518D01*
X90597Y101448D01*
X90627Y101377D01*
X90653Y101304D01*
X90676Y101230D01*
X90695Y101155D01*
X90710Y101080D01*
X90722Y101003D01*
X90730Y100926D01*
X90734Y100849D01*
X90734Y100771D01*
X90730Y100694D01*
X90722Y100617D01*
X90710Y100540D01*
X90695Y100465D01*
X90676Y100390D01*
X90653Y100316D01*
X90627Y100243D01*
X90597Y100172D01*
X90563Y100102D01*
X90526Y100034D01*
X90486Y99968D01*
X90442Y99904D01*
X90395Y99842D01*
X90346Y99783D01*
X90293Y99726D01*
X90238Y99672D01*
X90180Y99621D01*
X90119Y99573D01*
X90056Y99528D01*
X89991Y99486D01*
X89924Y99447D01*
X89855Y99412D01*
X89785Y99380D01*
X89713Y99352D01*
X89639Y99327D01*
X89565Y99306D01*
X89490Y99289D01*
X89413Y99275D01*
X89337Y99266D01*
X89259Y99260D01*
X89182Y99258D01*
X87630Y99258D01*
X89493Y99258D02*
X90734Y96774D01*
X93080Y101741D02*
X93080Y102362D01*
X96185Y102362D01*
X94633Y96774D01*
D11*
X167640Y26670D02*
X167640Y13970D01*
X167640Y26670D02*
X173990Y33020D01*
X186690Y33020D02*
X193040Y26670D01*
X173990Y33020D02*
X167640Y39370D01*
X167640Y52070D01*
X173990Y58420D01*
X186690Y58420D02*
X193040Y52070D01*
X193040Y39370D01*
X186690Y33020D01*
X186690Y7620D02*
X173990Y7620D01*
X167640Y13970D01*
X186690Y7620D02*
X193040Y13970D01*
X193040Y26670D01*
X173990Y58420D02*
X167640Y64770D01*
X167640Y77470D01*
X173990Y83820D01*
X186690Y83820D02*
X193040Y77470D01*
X193040Y64770D01*
X186690Y58420D01*
X167640Y90170D02*
X167640Y102870D01*
X173990Y109220D01*
X186690Y109220D02*
X193040Y102870D01*
X173990Y109220D02*
X167640Y115570D01*
X167640Y128270D01*
X173990Y134620D01*
X186690Y134620D01*
X193040Y128270D01*
X193040Y115570D01*
X186690Y109220D01*
X167640Y90170D02*
X173990Y83820D01*
X186690Y83820D02*
X193040Y90170D01*
X193040Y102870D01*
D12*
X197485Y17780D02*
X200025Y14605D01*
X197485Y17780D02*
X208915Y17780D01*
X208915Y14605D02*
X208915Y20955D01*
X163195Y116205D02*
X163195Y120015D01*
X163193Y120115D01*
X163187Y120214D01*
X163177Y120314D01*
X163164Y120412D01*
X163146Y120511D01*
X163125Y120608D01*
X163100Y120704D01*
X163071Y120800D01*
X163038Y120894D01*
X163002Y120987D01*
X162962Y121078D01*
X162918Y121168D01*
X162871Y121256D01*
X162821Y121342D01*
X162767Y121426D01*
X162710Y121508D01*
X162650Y121587D01*
X162586Y121665D01*
X162520Y121739D01*
X162451Y121811D01*
X162379Y121880D01*
X162305Y121946D01*
X162227Y122010D01*
X162148Y122070D01*
X162066Y122127D01*
X161982Y122181D01*
X161896Y122231D01*
X161808Y122278D01*
X161718Y122322D01*
X161627Y122362D01*
X161534Y122398D01*
X161440Y122431D01*
X161344Y122460D01*
X161248Y122485D01*
X161151Y122506D01*
X161052Y122524D01*
X160954Y122537D01*
X160854Y122547D01*
X160755Y122553D01*
X160655Y122555D01*
X159385Y122555D01*
X159285Y122553D01*
X159186Y122547D01*
X159086Y122537D01*
X158988Y122524D01*
X158889Y122506D01*
X158792Y122485D01*
X158696Y122460D01*
X158600Y122431D01*
X158506Y122398D01*
X158413Y122362D01*
X158322Y122322D01*
X158232Y122278D01*
X158144Y122231D01*
X158058Y122181D01*
X157974Y122127D01*
X157892Y122070D01*
X157813Y122010D01*
X157735Y121946D01*
X157661Y121880D01*
X157589Y121811D01*
X157520Y121739D01*
X157454Y121665D01*
X157390Y121587D01*
X157330Y121508D01*
X157273Y121426D01*
X157219Y121342D01*
X157169Y121256D01*
X157122Y121168D01*
X157078Y121078D01*
X157038Y120987D01*
X157002Y120894D01*
X156969Y120800D01*
X156940Y120704D01*
X156915Y120608D01*
X156894Y120511D01*
X156876Y120412D01*
X156863Y120314D01*
X156853Y120214D01*
X156847Y120115D01*
X156845Y120015D01*
X156845Y116205D01*
X151765Y116205D01*
X151765Y122555D01*
D13*
X121540Y40020D02*
X115540Y40020D01*
X115540Y32020D01*
X137540Y40020D02*
X143540Y40020D01*
X143540Y32020D01*
D12*
X126980Y31369D02*
X126980Y36195D01*
X128320Y36195D02*
X125639Y36195D01*
X130760Y35123D02*
X132100Y36195D01*
X132100Y31369D01*
X130760Y31369D02*
X133441Y31369D01*
D13*
X121540Y116220D02*
X115540Y116220D01*
X115540Y108220D01*
X137540Y116220D02*
X143540Y116220D01*
X143540Y108220D01*
D12*
X126980Y109855D02*
X126980Y105029D01*
X125639Y109855D02*
X128320Y109855D01*
X132234Y109855D02*
X132302Y109853D01*
X132369Y109847D01*
X132436Y109838D01*
X132503Y109825D01*
X132568Y109808D01*
X132633Y109787D01*
X132696Y109763D01*
X132758Y109735D01*
X132818Y109704D01*
X132876Y109670D01*
X132932Y109632D01*
X132987Y109592D01*
X133038Y109548D01*
X133087Y109501D01*
X133134Y109452D01*
X133178Y109401D01*
X133218Y109346D01*
X133256Y109290D01*
X133290Y109232D01*
X133321Y109172D01*
X133349Y109110D01*
X133373Y109047D01*
X133394Y108982D01*
X133411Y108917D01*
X133424Y108850D01*
X133433Y108783D01*
X133439Y108716D01*
X133441Y108648D01*
X132234Y109855D02*
X132156Y109853D01*
X132078Y109847D01*
X132001Y109837D01*
X131924Y109824D01*
X131848Y109806D01*
X131773Y109785D01*
X131699Y109760D01*
X131627Y109731D01*
X131556Y109699D01*
X131487Y109663D01*
X131419Y109624D01*
X131354Y109581D01*
X131291Y109535D01*
X131230Y109486D01*
X131172Y109434D01*
X131117Y109379D01*
X131064Y109322D01*
X131015Y109262D01*
X130968Y109199D01*
X130925Y109135D01*
X130885Y109068D01*
X130848Y108999D01*
X130815Y108928D01*
X130785Y108856D01*
X130759Y108783D01*
X133039Y107710D02*
X133088Y107759D01*
X133135Y107811D01*
X133178Y107866D01*
X133219Y107923D01*
X133257Y107982D01*
X133291Y108043D01*
X133322Y108106D01*
X133350Y108170D01*
X133374Y108236D01*
X133394Y108302D01*
X133411Y108370D01*
X133424Y108439D01*
X133433Y108508D01*
X133439Y108578D01*
X133441Y108648D01*
X133039Y107710D02*
X130760Y105029D01*
X133441Y105029D01*
D13*
X19940Y40020D02*
X13940Y40020D01*
X13940Y32020D01*
X35940Y40020D02*
X41940Y40020D01*
X41940Y32020D01*
D12*
X25380Y33655D02*
X25380Y28829D01*
X24039Y33655D02*
X26720Y33655D01*
X30232Y33655D02*
X29160Y29901D01*
X31841Y29901D01*
X31037Y30974D02*
X31037Y28829D01*
D10*
X25936Y105664D02*
X25936Y111252D01*
X24384Y111252D02*
X27488Y111252D01*
X29505Y105664D02*
X31367Y105664D01*
X31437Y105666D01*
X31506Y105672D01*
X31575Y105682D01*
X31643Y105695D01*
X31711Y105713D01*
X31777Y105734D01*
X31842Y105759D01*
X31906Y105787D01*
X31968Y105819D01*
X32028Y105854D01*
X32086Y105893D01*
X32141Y105935D01*
X32195Y105980D01*
X32245Y106028D01*
X32293Y106078D01*
X32338Y106132D01*
X32380Y106187D01*
X32419Y106245D01*
X32454Y106305D01*
X32486Y106367D01*
X32514Y106431D01*
X32539Y106496D01*
X32560Y106562D01*
X32578Y106630D01*
X32591Y106698D01*
X32601Y106767D01*
X32607Y106836D01*
X32609Y106906D01*
X32609Y107527D01*
X32607Y107597D01*
X32601Y107666D01*
X32591Y107735D01*
X32578Y107803D01*
X32560Y107871D01*
X32539Y107937D01*
X32514Y108002D01*
X32486Y108066D01*
X32454Y108128D01*
X32419Y108188D01*
X32380Y108246D01*
X32338Y108301D01*
X32293Y108355D01*
X32245Y108405D01*
X32195Y108453D01*
X32141Y108498D01*
X32086Y108540D01*
X32028Y108579D01*
X31968Y108614D01*
X31906Y108646D01*
X31842Y108674D01*
X31777Y108699D01*
X31711Y108720D01*
X31643Y108738D01*
X31575Y108751D01*
X31506Y108761D01*
X31437Y108767D01*
X31367Y108769D01*
X31367Y108768D02*
X29505Y108768D01*
X29505Y111252D01*
X32609Y111252D01*
M02*
